<svg xmlns="http://www.w3.org/2000/svg" xmlns:xlink="http://www.w3.org/1999/xlink" id="terminal" baseProfile="full" viewBox="0 0 640 410" width="640" version="1.1">
    <defs>
        <termtosvg:template_settings xmlns:termtosvg="https://github.com/nbedos/termtosvg">
            <termtosvg:screen_geometry columns="80" rows="24"/>
            <termtosvg:animation type="css"/>
        </termtosvg:template_settings>
        <style type="text/css" id="generated-style"><![CDATA[#screen {
                font-family: 'DejaVu Sans Mono', monospace;
                font-style: normal;
                font-size: 14px;
            }

        text {
            dominant-baseline: text-before-edge;
            white-space: pre;
        }
    
            :root {
                --animation-duration: 26734ms;
            }

            @keyframes roll {
                0.000%{transform:translateY(0px)}
0.842%{transform:translateY(-442px)}
2.069%{transform:translateY(-884px)}
3.269%{transform:translateY(-1326px)}
5.480%{transform:translateY(-1768px)}
6.108%{transform:translateY(-2210px)}
6.408%{transform:translateY(-2652px)}
6.778%{transform:translateY(-3094px)}
7.189%{transform:translateY(-3536px)}
7.429%{transform:translateY(-3978px)}
8.211%{transform:translateY(-4420px)}
8.686%{transform:translateY(-4862px)}
9.763%{transform:translateY(-5304px)}
9.939%{transform:translateY(-5746px)}
13.702%{transform:translateY(-6188px)}
14.506%{transform:translateY(-6630px)}
14.869%{transform:translateY(-7072px)}
15.254%{transform:translateY(-7514px)}
16.028%{transform:translateY(-7956px)}
16.391%{transform:translateY(-8398px)}
16.724%{transform:translateY(-8840px)}
17.199%{transform:translateY(-9282px)}
17.831%{transform:translateY(-9724px)}
18.609%{transform:translateY(-10166px)}
24.650%{transform:translateY(-10608px)}
24.684%{transform:translateY(-11050px)}
24.718%{transform:translateY(-11492px)}
26.693%{transform:translateY(-11934px)}
27.587%{transform:translateY(-12376px)}
28.967%{transform:translateY(-12818px)}
29.505%{transform:translateY(-13260px)}
30.938%{transform:translateY(-13702px)}
31.634%{transform:translateY(-14144px)}
33.609%{transform:translateY(-14586px)}
34.207%{transform:translateY(-15028px)}
34.596%{transform:translateY(-15470px)}
34.955%{transform:translateY(-15912px)}
36.743%{transform:translateY(-16354px)}
37.424%{transform:translateY(-16796px)}
37.488%{transform:translateY(-17238px)}
42.889%{transform:translateY(-17680px)}
43.877%{transform:translateY(-18122px)}
44.296%{transform:translateY(-18564px)}
44.920%{transform:translateY(-19006px)}
46.566%{transform:translateY(-19448px)}
47.254%{transform:translateY(-19890px)}
47.673%{transform:translateY(-20332px)}
48.276%{transform:translateY(-20774px)}
48.635%{transform:translateY(-21216px)}
49.173%{transform:translateY(-21658px)}
51.661%{transform:translateY(-22100px)}
52.948%{transform:translateY(-22542px)}
55.005%{transform:translateY(-22984px)}
55.342%{transform:translateY(-23426px)}
55.405%{transform:translateY(-23868px)}
59.407%{transform:translateY(-24310px)}
61.210%{transform:translateY(-24752px)}
61.689%{transform:translateY(-25194px)}
62.348%{transform:translateY(-25636px)}
63.511%{transform:translateY(-26078px)}
64.143%{transform:translateY(-26520px)}
64.742%{transform:translateY(-26962px)}
65.460%{transform:translateY(-27404px)}
65.849%{transform:translateY(-27846px)}
66.178%{transform:translateY(-28288px)}
69.316%{transform:translateY(-28730px)}
73.992%{transform:translateY(-29172px)}
75.185%{transform:translateY(-29614px)}
75.533%{transform:translateY(-30056px)}
75.600%{transform:translateY(-30498px)}
80.426%{transform:translateY(-30940px)}
81.746%{transform:translateY(-31382px)}
82.371%{transform:translateY(-31824px)}
82.853%{transform:translateY(-32266px)}
83.811%{transform:translateY(-32708px)}
84.110%{transform:translateY(-33150px)}
84.525%{transform:translateY(-33592px)}
84.914%{transform:translateY(-34034px)}
85.573%{transform:translateY(-34476px)}
86.171%{transform:translateY(-34918px)}
89.882%{transform:translateY(-35360px)}
89.915%{transform:translateY(-35802px)}
89.949%{transform:translateY(-36244px)}
96.259%{transform:translateY(-36686px)}
100.000%{transform:translateY(-36686px)}
            }

            #screen_view {
                animation-duration: 26734ms;
                animation-iteration-count:infinite;
                animation-name:roll;
                animation-timing-function: steps(1,end);
                animation-fill-mode: forwards;
            }
        ]]></style>
        <style type="text/css" id="user-style">
            /* The colors defined below are the default 16 colors used for rendering text of the terminal. Adjust
               them as needed.
               base16-default-dark color theme (source: http://chriskempson.com/projects/base16/) */
            .foreground {fill: #d8d8d8;}
            .background {fill: #181818;}
            .color0 {fill: #181818;}
            .color1 {fill: #ab4642;}
            .color2 {fill: #a1b56c;}
            .color3 {fill: #f7ca88;}
            .color4 {fill: #7cafc2;}
            .color5 {fill: #ba8baf;}
            .color6 {fill: #86c1b9;}
            .color7 {fill: #d8d8d8;}
            .color8 {fill: #585858;}
            .color9 {fill: #ab4642;}
            .color10 {fill: #a1b56C;}
            .color11 {fill: #f7ca88;}
            .color12 {fill: #7cafc2;}
            .color13 {fill: #ba8baf;}
            .color14 {fill: #86c1b9;}
            .color15 {fill: #f8f8f8;}
        </style>
    </defs>
    <svg id="screen" width="640" height="408" viewBox="0 0 640 408" preserveAspectRatio="xMidYMin slice">
    <rect class="background" height="100%" width="100%" x="0" y="0"/><defs><g id="g1"><text x="0" textLength="168" class="foreground">tom@bantam:/code/nc$ </text><text x="168" textLength="8" class="background"> </text></g><g id="g2"><text x="0" textLength="176" class="foreground">tom@bantam:/code/nc$ #</text><text x="176" textLength="8" class="background"> </text></g><g id="g3"><text x="0" textLength="184" class="foreground">tom@bantam:/code/nc$ # </text><text x="184" textLength="8" class="background"> </text></g><g id="g4"><text x="0" textLength="192" class="foreground">tom@bantam:/code/nc$ # g</text><text x="192" textLength="8" class="background"> </text></g><g id="g5"><text x="0" textLength="200" class="foreground">tom@bantam:/code/nc$ # gi</text><text x="200" textLength="8" class="background"> </text></g><g id="g6"><text x="0" textLength="208" class="foreground">tom@bantam:/code/nc$ # git</text><text x="208" textLength="8" class="background"> </text></g><g id="g7"><text x="0" textLength="216" class="foreground">tom@bantam:/code/nc$ # git-</text><text x="216" textLength="8" class="background"> </text></g><g id="g8"><text x="0" textLength="224" class="foreground">tom@bantam:/code/nc$ # git-r</text><text x="224" textLength="8" class="background"> </text></g><g id="g9"><text x="0" textLength="232" class="foreground">tom@bantam:/code/nc$ # git-ro</text><text x="232" textLength="8" class="background"> </text></g><g id="g10"><text x="0" textLength="240" class="foreground">tom@bantam:/code/nc$ # git-rot</text><text x="240" textLength="8" class="background"> </text></g><g id="g11"><text x="0" textLength="248" class="foreground">tom@bantam:/code/nc$ # git-rota</text><text x="248" textLength="8" class="background"> </text></g><g id="g12"><text x="0" textLength="256" class="foreground">tom@bantam:/code/nc$ # git-rotat</text><text x="256" textLength="8" class="background"> </text></g><g id="g13"><text x="0" textLength="264" class="foreground">tom@bantam:/code/nc$ # git-rotate</text><text x="264" textLength="8" class="background"> </text></g><g id="g14"><text x="0" textLength="264" class="foreground">tom@bantam:/code/nc$ # git-rotate</text></g><g id="g15"><text x="0" textLength="248" class="foreground">(working) tom@bantam:/code/nc$ </text><text x="248" textLength="8" class="background"> </text></g><g id="g16"><text x="0" textLength="256" class="foreground">(working) tom@bantam:/code/nc$ g</text><text x="256" textLength="8" class="background"> </text></g><g id="g17"><text x="0" textLength="264" class="foreground">(working) tom@bantam:/code/nc$ gi</text><text x="264" textLength="8" class="background"> </text></g><g id="g18"><text x="0" textLength="272" class="foreground">(working) tom@bantam:/code/nc$ git</text><text x="272" textLength="8" class="background"> </text></g><g id="g19"><text x="0" textLength="280" class="foreground">(working) tom@bantam:/code/nc$ git </text><text x="280" textLength="8" class="background"> </text></g><g id="g20"><text x="0" textLength="288" class="foreground">(working) tom@bantam:/code/nc$ git b</text><text x="288" textLength="8" class="background"> </text></g><g id="g21"><text x="0" textLength="296" class="foreground">(working) tom@bantam:/code/nc$ git br</text><text x="296" textLength="8" class="background"> </text></g><g id="g22"><text x="0" textLength="304" class="foreground">(working) tom@bantam:/code/nc$ git bra</text><text x="304" textLength="8" class="background"> </text></g><g id="g23"><text x="0" textLength="312" class="foreground">(working) tom@bantam:/code/nc$ git bran</text><text x="312" textLength="8" class="background"> </text></g><g id="g24"><text x="0" textLength="320" class="foreground">(working) tom@bantam:/code/nc$ git branc</text><text x="320" textLength="8" class="background"> </text></g><g id="g25"><text x="0" textLength="328" class="foreground">(working) tom@bantam:/code/nc$ git branch</text><text x="328" textLength="8" class="background"> </text></g><g id="g26"><text x="0" textLength="328" class="foreground">(working) tom@bantam:/code/nc$ git branch</text></g><g id="g27"><text x="0" textLength="8" class="background"> </text></g><g id="g28"><text x="0" textLength="72" class="foreground">  develop</text></g><g id="g29"><text x="0" textLength="64" class="foreground">  master</text></g><g id="g30"><text x="0" textLength="16" class="foreground">* </text><text x="16" textLength="56" class="color2">working</text></g><g id="g31"><text x="0" textLength="288" class="foreground">(working) tom@bantam:/code/nc$ git r</text><text x="288" textLength="8" class="background"> </text></g><g id="g32"><text x="0" textLength="296" class="foreground">(working) tom@bantam:/code/nc$ git ro</text><text x="296" textLength="8" class="background"> </text></g><g id="g33"><text x="0" textLength="304" class="foreground">(working) tom@bantam:/code/nc$ git rot</text><text x="304" textLength="8" class="background"> </text></g><g id="g34"><text x="0" textLength="312" class="foreground">(working) tom@bantam:/code/nc$ git rota</text><text x="312" textLength="8" class="background"> </text></g><g id="g35"><text x="0" textLength="320" class="foreground">(working) tom@bantam:/code/nc$ git rotat</text><text x="320" textLength="8" class="background"> </text></g><g id="g36"><text x="0" textLength="328" class="foreground">(working) tom@bantam:/code/nc$ git rotate</text><text x="328" textLength="8" class="background"> </text></g><g id="g37"><text x="0" textLength="328" class="foreground">(working) tom@bantam:/code/nc$ git rotate</text></g><g id="g38"><text x="0" textLength="384" class="foreground">Your branch is up to date with 'origin/develop'.</text></g><g id="g39"><text x="0" textLength="224" class="foreground">Switched to branch 'develop'</text></g><g id="g40"><text x="0" textLength="248" class="foreground">(develop) tom@bantam:/code/nc$ </text><text x="248" textLength="8" class="background"> </text></g><g id="g41"><text x="0" textLength="256" class="foreground">(develop) tom@bantam:/code/nc$ g</text><text x="256" textLength="8" class="background"> </text></g><g id="g42"><text x="0" textLength="264" class="foreground">(develop) tom@bantam:/code/nc$ gi</text><text x="264" textLength="8" class="background"> </text></g><g id="g43"><text x="0" textLength="272" class="foreground">(develop) tom@bantam:/code/nc$ git</text><text x="272" textLength="8" class="background"> </text></g><g id="g44"><text x="0" textLength="280" class="foreground">(develop) tom@bantam:/code/nc$ git </text><text x="280" textLength="8" class="background"> </text></g><g id="g45"><text x="0" textLength="288" class="foreground">(develop) tom@bantam:/code/nc$ git r</text><text x="288" textLength="8" class="background"> </text></g><g id="g46"><text x="0" textLength="296" class="foreground">(develop) tom@bantam:/code/nc$ git ro</text><text x="296" textLength="8" class="background"> </text></g><g id="g47"><text x="0" textLength="304" class="foreground">(develop) tom@bantam:/code/nc$ git rot</text><text x="304" textLength="8" class="background"> </text></g><g id="g48"><text x="0" textLength="312" class="foreground">(develop) tom@bantam:/code/nc$ git rota</text><text x="312" textLength="8" class="background"> </text></g><g id="g49"><text x="0" textLength="320" class="foreground">(develop) tom@bantam:/code/nc$ git rotat</text><text x="320" textLength="8" class="background"> </text></g><g id="g50"><text x="0" textLength="328" class="foreground">(develop) tom@bantam:/code/nc$ git rotate</text><text x="328" textLength="8" class="background"> </text></g><g id="g51"><text x="0" textLength="336" class="foreground">(develop) tom@bantam:/code/nc$ git rotate </text><text x="336" textLength="8" class="background"> </text></g><g id="g52"><text x="0" textLength="344" class="foreground">(develop) tom@bantam:/code/nc$ git rotate -</text><text x="344" textLength="8" class="background"> </text></g><g id="g53"><text x="0" textLength="344" class="foreground">(develop) tom@bantam:/code/nc$ git rotate -</text></g><g id="g54"><text x="0" textLength="384" class="foreground">Your branch is up to date with 'origin/working'.</text></g><g id="g55"><text x="0" textLength="224" class="foreground">Switched to branch 'working'</text></g><g id="g56"><text x="0" textLength="336" class="foreground">(working) tom@bantam:/code/nc$ git rotate </text><text x="336" textLength="8" class="background"> </text></g><g id="g57"><text x="0" textLength="344" class="foreground">(working) tom@bantam:/code/nc$ git rotate 2</text><text x="344" textLength="8" class="background"> </text></g><g id="g58"><text x="0" textLength="344" class="foreground">(working) tom@bantam:/code/nc$ git rotate 2</text></g><g id="g59"><text x="0" textLength="376" class="foreground">Your branch is up to date with 'origin/master'.</text></g><g id="g60"><text x="0" textLength="216" class="foreground">Switched to branch 'master'</text></g><g id="g61"><text x="0" textLength="240" class="foreground">(master) tom@bantam:/code/nc$ </text><text x="240" textLength="8" class="background"> </text></g><g id="g62"><text x="0" textLength="248" class="foreground">(master) tom@bantam:/code/nc$ g</text><text x="248" textLength="8" class="background"> </text></g><g id="g63"><text x="0" textLength="256" class="foreground">(master) tom@bantam:/code/nc$ gi</text><text x="256" textLength="8" class="background"> </text></g><g id="g64"><text x="0" textLength="264" class="foreground">(master) tom@bantam:/code/nc$ git</text><text x="264" textLength="8" class="background"> </text></g><g id="g65"><text x="0" textLength="272" class="foreground">(master) tom@bantam:/code/nc$ git </text><text x="272" textLength="8" class="background"> </text></g><g id="g66"><text x="0" textLength="280" class="foreground">(master) tom@bantam:/code/nc$ git b</text><text x="280" textLength="8" class="background"> </text></g><g id="g67"><text x="0" textLength="288" class="foreground">(master) tom@bantam:/code/nc$ git br</text><text x="288" textLength="8" class="background"> </text></g><g id="g68"><text x="0" textLength="296" class="foreground">(master) tom@bantam:/code/nc$ git bra</text><text x="296" textLength="8" class="background"> </text></g><g id="g69"><text x="0" textLength="304" class="foreground">(master) tom@bantam:/code/nc$ git bran</text><text x="304" textLength="8" class="background"> </text></g><g id="g70"><text x="0" textLength="312" class="foreground">(master) tom@bantam:/code/nc$ git branc</text><text x="312" textLength="8" class="background"> </text></g><g id="g71"><text x="0" textLength="320" class="foreground">(master) tom@bantam:/code/nc$ git branch</text><text x="320" textLength="8" class="background"> </text></g><g id="g72"><text x="0" textLength="320" class="foreground">(master) tom@bantam:/code/nc$ git branch</text></g><g id="g73"><text x="0" textLength="16" class="foreground">* </text><text x="16" textLength="48" class="color2">master</text></g><g id="g74"><text x="0" textLength="72" class="foreground">  working</text></g><g id="g75"><text x="0" textLength="240" class="foreground">(master) tom@bantam:/code/nc$ </text></g></defs><g id="screen_view"><g><rect x="168" y="0" width="8" height="17" class="foreground"/><use xlink:href="#g1" y="0"/></g><g><rect x="176" y="442" width="8" height="17" class="foreground"/><use xlink:href="#g2" y="442"/></g><g><rect x="184" y="884" width="8" height="17" class="foreground"/><use xlink:href="#g3" y="884"/></g><g><rect x="192" y="1326" width="8" height="17" class="foreground"/><use xlink:href="#g4" y="1326"/></g><g><rect x="200" y="1768" width="8" height="17" class="foreground"/><use xlink:href="#g5" y="1768"/></g><g><rect x="208" y="2210" width="8" height="17" class="foreground"/><use xlink:href="#g6" y="2210"/></g><g><rect x="216" y="2652" width="8" height="17" class="foreground"/><use xlink:href="#g7" y="2652"/></g><g><rect x="224" y="3094" width="8" height="17" class="foreground"/><use xlink:href="#g8" y="3094"/></g><g><rect x="232" y="3536" width="8" height="17" class="foreground"/><use xlink:href="#g9" y="3536"/></g><g><rect x="240" y="3978" width="8" height="17" class="foreground"/><use xlink:href="#g10" y="3978"/></g><g><rect x="248" y="4420" width="8" height="17" class="foreground"/><use xlink:href="#g11" y="4420"/></g><g><rect x="256" y="4862" width="8" height="17" class="foreground"/><use xlink:href="#g12" y="4862"/></g><g><rect x="264" y="5304" width="8" height="17" class="foreground"/><use xlink:href="#g13" y="5304"/></g><g><use xlink:href="#g14" y="5746"/><rect x="248" y="5763" width="8" height="17" class="foreground"/><use xlink:href="#g15" y="5763"/></g><g><use xlink:href="#g14" y="6188"/><rect x="256" y="6205" width="8" height="17" class="foreground"/><use xlink:href="#g16" y="6205"/></g><g><use xlink:href="#g14" y="6630"/><rect x="264" y="6647" width="8" height="17" class="foreground"/><use xlink:href="#g17" y="6647"/></g><g><use xlink:href="#g14" y="7072"/><rect x="272" y="7089" width="8" height="17" class="foreground"/><use xlink:href="#g18" y="7089"/></g><g><use xlink:href="#g14" y="7514"/><rect x="280" y="7531" width="8" height="17" class="foreground"/><use xlink:href="#g19" y="7531"/></g><g><use xlink:href="#g14" y="7956"/><rect x="288" y="7973" width="8" height="17" class="foreground"/><use xlink:href="#g20" y="7973"/></g><g><use xlink:href="#g14" y="8398"/><rect x="296" y="8415" width="8" height="17" class="foreground"/><use xlink:href="#g21" y="8415"/></g><g><use xlink:href="#g14" y="8840"/><rect x="304" y="8857" width="8" height="17" class="foreground"/><use xlink:href="#g22" y="8857"/></g><g><use xlink:href="#g14" y="9282"/><rect x="312" y="9299" width="8" height="17" class="foreground"/><use xlink:href="#g23" y="9299"/></g><g><use xlink:href="#g14" y="9724"/><rect x="320" y="9741" width="8" height="17" class="foreground"/><use xlink:href="#g24" y="9741"/></g><g><use xlink:href="#g14" y="10166"/><rect x="328" y="10183" width="8" height="17" class="foreground"/><use xlink:href="#g25" y="10183"/></g><g><use xlink:href="#g14" y="10608"/><use xlink:href="#g26" y="10625"/><rect x="0" y="10642" width="8" height="17" class="foreground"/><use xlink:href="#g27" y="10642"/></g><g><use xlink:href="#g14" y="11050"/><use xlink:href="#g26" y="11067"/><use xlink:href="#g28" y="11084"/><use xlink:href="#g29" y="11101"/><use xlink:href="#g30" y="11118"/><rect x="0" y="11135" width="8" height="17" class="foreground"/><use xlink:href="#g27" y="11135"/></g><g><use xlink:href="#g14" y="11492"/><use xlink:href="#g26" y="11509"/><use xlink:href="#g28" y="11526"/><use xlink:href="#g29" y="11543"/><use xlink:href="#g30" y="11560"/><rect x="248" y="11577" width="8" height="17" class="foreground"/><use xlink:href="#g15" y="11577"/></g><g><use xlink:href="#g14" y="11934"/><use xlink:href="#g26" y="11951"/><use xlink:href="#g28" y="11968"/><use xlink:href="#g29" y="11985"/><use xlink:href="#g30" y="12002"/><rect x="256" y="12019" width="8" height="17" class="foreground"/><use xlink:href="#g16" y="12019"/></g><g><use xlink:href="#g14" y="12376"/><use xlink:href="#g26" y="12393"/><use xlink:href="#g28" y="12410"/><use xlink:href="#g29" y="12427"/><use xlink:href="#g30" y="12444"/><rect x="264" y="12461" width="8" height="17" class="foreground"/><use xlink:href="#g17" y="12461"/></g><g><use xlink:href="#g14" y="12818"/><use xlink:href="#g26" y="12835"/><use xlink:href="#g28" y="12852"/><use xlink:href="#g29" y="12869"/><use xlink:href="#g30" y="12886"/><rect x="272" y="12903" width="8" height="17" class="foreground"/><use xlink:href="#g18" y="12903"/></g><g><use xlink:href="#g14" y="13260"/><use xlink:href="#g26" y="13277"/><use xlink:href="#g28" y="13294"/><use xlink:href="#g29" y="13311"/><use xlink:href="#g30" y="13328"/><rect x="280" y="13345" width="8" height="17" class="foreground"/><use xlink:href="#g19" y="13345"/></g><g><use xlink:href="#g14" y="13702"/><use xlink:href="#g26" y="13719"/><use xlink:href="#g28" y="13736"/><use xlink:href="#g29" y="13753"/><use xlink:href="#g30" y="13770"/><rect x="288" y="13787" width="8" height="17" class="foreground"/><use xlink:href="#g31" y="13787"/></g><g><use xlink:href="#g14" y="14144"/><use xlink:href="#g26" y="14161"/><use xlink:href="#g28" y="14178"/><use xlink:href="#g29" y="14195"/><use xlink:href="#g30" y="14212"/><rect x="296" y="14229" width="8" height="17" class="foreground"/><use xlink:href="#g32" y="14229"/></g><g><use xlink:href="#g14" y="14586"/><use xlink:href="#g26" y="14603"/><use xlink:href="#g28" y="14620"/><use xlink:href="#g29" y="14637"/><use xlink:href="#g30" y="14654"/><rect x="304" y="14671" width="8" height="17" class="foreground"/><use xlink:href="#g33" y="14671"/></g><g><use xlink:href="#g14" y="15028"/><use xlink:href="#g26" y="15045"/><use xlink:href="#g28" y="15062"/><use xlink:href="#g29" y="15079"/><use xlink:href="#g30" y="15096"/><rect x="312" y="15113" width="8" height="17" class="foreground"/><use xlink:href="#g34" y="15113"/></g><g><use xlink:href="#g14" y="15470"/><use xlink:href="#g26" y="15487"/><use xlink:href="#g28" y="15504"/><use xlink:href="#g29" y="15521"/><use xlink:href="#g30" y="15538"/><rect x="320" y="15555" width="8" height="17" class="foreground"/><use xlink:href="#g35" y="15555"/></g><g><use xlink:href="#g14" y="15912"/><use xlink:href="#g26" y="15929"/><use xlink:href="#g28" y="15946"/><use xlink:href="#g29" y="15963"/><use xlink:href="#g30" y="15980"/><rect x="328" y="15997" width="8" height="17" class="foreground"/><use xlink:href="#g36" y="15997"/></g><g><use xlink:href="#g14" y="16354"/><use xlink:href="#g26" y="16371"/><use xlink:href="#g28" y="16388"/><use xlink:href="#g29" y="16405"/><use xlink:href="#g30" y="16422"/><use xlink:href="#g37" y="16439"/><rect x="0" y="16456" width="8" height="17" class="foreground"/><use xlink:href="#g27" y="16456"/></g><g><use xlink:href="#g14" y="16796"/><use xlink:href="#g26" y="16813"/><use xlink:href="#g28" y="16830"/><use xlink:href="#g29" y="16847"/><use xlink:href="#g30" y="16864"/><use xlink:href="#g37" y="16881"/><use xlink:href="#g38" y="16898"/><use xlink:href="#g39" y="16915"/><rect x="0" y="16932" width="8" height="17" class="foreground"/><use xlink:href="#g27" y="16932"/></g><g><use xlink:href="#g14" y="17238"/><use xlink:href="#g26" y="17255"/><use xlink:href="#g28" y="17272"/><use xlink:href="#g29" y="17289"/><use xlink:href="#g30" y="17306"/><use xlink:href="#g37" y="17323"/><use xlink:href="#g38" y="17340"/><use xlink:href="#g39" y="17357"/><rect x="248" y="17374" width="8" height="17" class="foreground"/><use xlink:href="#g40" y="17374"/></g><g><use xlink:href="#g14" y="17680"/><use xlink:href="#g26" y="17697"/><use xlink:href="#g28" y="17714"/><use xlink:href="#g29" y="17731"/><use xlink:href="#g30" y="17748"/><use xlink:href="#g37" y="17765"/><use xlink:href="#g38" y="17782"/><use xlink:href="#g39" y="17799"/><rect x="256" y="17816" width="8" height="17" class="foreground"/><use xlink:href="#g41" y="17816"/></g><g><use xlink:href="#g14" y="18122"/><use xlink:href="#g26" y="18139"/><use xlink:href="#g28" y="18156"/><use xlink:href="#g29" y="18173"/><use xlink:href="#g30" y="18190"/><use xlink:href="#g37" y="18207"/><use xlink:href="#g38" y="18224"/><use xlink:href="#g39" y="18241"/><rect x="264" y="18258" width="8" height="17" class="foreground"/><use xlink:href="#g42" y="18258"/></g><g><use xlink:href="#g14" y="18564"/><use xlink:href="#g26" y="18581"/><use xlink:href="#g28" y="18598"/><use xlink:href="#g29" y="18615"/><use xlink:href="#g30" y="18632"/><use xlink:href="#g37" y="18649"/><use xlink:href="#g38" y="18666"/><use xlink:href="#g39" y="18683"/><rect x="272" y="18700" width="8" height="17" class="foreground"/><use xlink:href="#g43" y="18700"/></g><g><use xlink:href="#g14" y="19006"/><use xlink:href="#g26" y="19023"/><use xlink:href="#g28" y="19040"/><use xlink:href="#g29" y="19057"/><use xlink:href="#g30" y="19074"/><use xlink:href="#g37" y="19091"/><use xlink:href="#g38" y="19108"/><use xlink:href="#g39" y="19125"/><rect x="280" y="19142" width="8" height="17" class="foreground"/><use xlink:href="#g44" y="19142"/></g><g><use xlink:href="#g14" y="19448"/><use xlink:href="#g26" y="19465"/><use xlink:href="#g28" y="19482"/><use xlink:href="#g29" y="19499"/><use xlink:href="#g30" y="19516"/><use xlink:href="#g37" y="19533"/><use xlink:href="#g38" y="19550"/><use xlink:href="#g39" y="19567"/><rect x="288" y="19584" width="8" height="17" class="foreground"/><use xlink:href="#g45" y="19584"/></g><g><use xlink:href="#g14" y="19890"/><use xlink:href="#g26" y="19907"/><use xlink:href="#g28" y="19924"/><use xlink:href="#g29" y="19941"/><use xlink:href="#g30" y="19958"/><use xlink:href="#g37" y="19975"/><use xlink:href="#g38" y="19992"/><use xlink:href="#g39" y="20009"/><rect x="296" y="20026" width="8" height="17" class="foreground"/><use xlink:href="#g46" y="20026"/></g><g><use xlink:href="#g14" y="20332"/><use xlink:href="#g26" y="20349"/><use xlink:href="#g28" y="20366"/><use xlink:href="#g29" y="20383"/><use xlink:href="#g30" y="20400"/><use xlink:href="#g37" y="20417"/><use xlink:href="#g38" y="20434"/><use xlink:href="#g39" y="20451"/><rect x="304" y="20468" width="8" height="17" class="foreground"/><use xlink:href="#g47" y="20468"/></g><g><use xlink:href="#g14" y="20774"/><use xlink:href="#g26" y="20791"/><use xlink:href="#g28" y="20808"/><use xlink:href="#g29" y="20825"/><use xlink:href="#g30" y="20842"/><use xlink:href="#g37" y="20859"/><use xlink:href="#g38" y="20876"/><use xlink:href="#g39" y="20893"/><rect x="312" y="20910" width="8" height="17" class="foreground"/><use xlink:href="#g48" y="20910"/></g><g><use xlink:href="#g14" y="21216"/><use xlink:href="#g26" y="21233"/><use xlink:href="#g28" y="21250"/><use xlink:href="#g29" y="21267"/><use xlink:href="#g30" y="21284"/><use xlink:href="#g37" y="21301"/><use xlink:href="#g38" y="21318"/><use xlink:href="#g39" y="21335"/><rect x="320" y="21352" width="8" height="17" class="foreground"/><use xlink:href="#g49" y="21352"/></g><g><use xlink:href="#g14" y="21658"/><use xlink:href="#g26" y="21675"/><use xlink:href="#g28" y="21692"/><use xlink:href="#g29" y="21709"/><use xlink:href="#g30" y="21726"/><use xlink:href="#g37" y="21743"/><use xlink:href="#g38" y="21760"/><use xlink:href="#g39" y="21777"/><rect x="328" y="21794" width="8" height="17" class="foreground"/><use xlink:href="#g50" y="21794"/></g><g><use xlink:href="#g14" y="22100"/><use xlink:href="#g26" y="22117"/><use xlink:href="#g28" y="22134"/><use xlink:href="#g29" y="22151"/><use xlink:href="#g30" y="22168"/><use xlink:href="#g37" y="22185"/><use xlink:href="#g38" y="22202"/><use xlink:href="#g39" y="22219"/><rect x="336" y="22236" width="8" height="17" class="foreground"/><use xlink:href="#g51" y="22236"/></g><g><use xlink:href="#g14" y="22542"/><use xlink:href="#g26" y="22559"/><use xlink:href="#g28" y="22576"/><use xlink:href="#g29" y="22593"/><use xlink:href="#g30" y="22610"/><use xlink:href="#g37" y="22627"/><use xlink:href="#g38" y="22644"/><use xlink:href="#g39" y="22661"/><rect x="344" y="22678" width="8" height="17" class="foreground"/><use xlink:href="#g52" y="22678"/></g><g><use xlink:href="#g14" y="22984"/><use xlink:href="#g26" y="23001"/><use xlink:href="#g28" y="23018"/><use xlink:href="#g29" y="23035"/><use xlink:href="#g30" y="23052"/><use xlink:href="#g37" y="23069"/><use xlink:href="#g38" y="23086"/><use xlink:href="#g39" y="23103"/><use xlink:href="#g53" y="23120"/><rect x="0" y="23137" width="8" height="17" class="foreground"/><use xlink:href="#g27" y="23137"/></g><g><use xlink:href="#g14" y="23426"/><use xlink:href="#g26" y="23443"/><use xlink:href="#g28" y="23460"/><use xlink:href="#g29" y="23477"/><use xlink:href="#g30" y="23494"/><use xlink:href="#g37" y="23511"/><use xlink:href="#g38" y="23528"/><use xlink:href="#g39" y="23545"/><use xlink:href="#g53" y="23562"/><use xlink:href="#g54" y="23579"/><use xlink:href="#g55" y="23596"/><rect x="0" y="23613" width="8" height="17" class="foreground"/><use xlink:href="#g27" y="23613"/></g><g><use xlink:href="#g14" y="23868"/><use xlink:href="#g26" y="23885"/><use xlink:href="#g28" y="23902"/><use xlink:href="#g29" y="23919"/><use xlink:href="#g30" y="23936"/><use xlink:href="#g37" y="23953"/><use xlink:href="#g38" y="23970"/><use xlink:href="#g39" y="23987"/><use xlink:href="#g53" y="24004"/><use xlink:href="#g54" y="24021"/><use xlink:href="#g55" y="24038"/><rect x="248" y="24055" width="8" height="17" class="foreground"/><use xlink:href="#g15" y="24055"/></g><g><use xlink:href="#g14" y="24310"/><use xlink:href="#g26" y="24327"/><use xlink:href="#g28" y="24344"/><use xlink:href="#g29" y="24361"/><use xlink:href="#g30" y="24378"/><use xlink:href="#g37" y="24395"/><use xlink:href="#g38" y="24412"/><use xlink:href="#g39" y="24429"/><use xlink:href="#g53" y="24446"/><use xlink:href="#g54" y="24463"/><use xlink:href="#g55" y="24480"/><rect x="256" y="24497" width="8" height="17" class="foreground"/><use xlink:href="#g16" y="24497"/></g><g><use xlink:href="#g14" y="24752"/><use xlink:href="#g26" y="24769"/><use xlink:href="#g28" y="24786"/><use xlink:href="#g29" y="24803"/><use xlink:href="#g30" y="24820"/><use xlink:href="#g37" y="24837"/><use xlink:href="#g38" y="24854"/><use xlink:href="#g39" y="24871"/><use xlink:href="#g53" y="24888"/><use xlink:href="#g54" y="24905"/><use xlink:href="#g55" y="24922"/><rect x="264" y="24939" width="8" height="17" class="foreground"/><use xlink:href="#g17" y="24939"/></g><g><use xlink:href="#g14" y="25194"/><use xlink:href="#g26" y="25211"/><use xlink:href="#g28" y="25228"/><use xlink:href="#g29" y="25245"/><use xlink:href="#g30" y="25262"/><use xlink:href="#g37" y="25279"/><use xlink:href="#g38" y="25296"/><use xlink:href="#g39" y="25313"/><use xlink:href="#g53" y="25330"/><use xlink:href="#g54" y="25347"/><use xlink:href="#g55" y="25364"/><rect x="272" y="25381" width="8" height="17" class="foreground"/><use xlink:href="#g18" y="25381"/></g><g><use xlink:href="#g14" y="25636"/><use xlink:href="#g26" y="25653"/><use xlink:href="#g28" y="25670"/><use xlink:href="#g29" y="25687"/><use xlink:href="#g30" y="25704"/><use xlink:href="#g37" y="25721"/><use xlink:href="#g38" y="25738"/><use xlink:href="#g39" y="25755"/><use xlink:href="#g53" y="25772"/><use xlink:href="#g54" y="25789"/><use xlink:href="#g55" y="25806"/><rect x="280" y="25823" width="8" height="17" class="foreground"/><use xlink:href="#g19" y="25823"/></g><g><use xlink:href="#g14" y="26078"/><use xlink:href="#g26" y="26095"/><use xlink:href="#g28" y="26112"/><use xlink:href="#g29" y="26129"/><use xlink:href="#g30" y="26146"/><use xlink:href="#g37" y="26163"/><use xlink:href="#g38" y="26180"/><use xlink:href="#g39" y="26197"/><use xlink:href="#g53" y="26214"/><use xlink:href="#g54" y="26231"/><use xlink:href="#g55" y="26248"/><rect x="288" y="26265" width="8" height="17" class="foreground"/><use xlink:href="#g31" y="26265"/></g><g><use xlink:href="#g14" y="26520"/><use xlink:href="#g26" y="26537"/><use xlink:href="#g28" y="26554"/><use xlink:href="#g29" y="26571"/><use xlink:href="#g30" y="26588"/><use xlink:href="#g37" y="26605"/><use xlink:href="#g38" y="26622"/><use xlink:href="#g39" y="26639"/><use xlink:href="#g53" y="26656"/><use xlink:href="#g54" y="26673"/><use xlink:href="#g55" y="26690"/><rect x="296" y="26707" width="8" height="17" class="foreground"/><use xlink:href="#g32" y="26707"/></g><g><use xlink:href="#g14" y="26962"/><use xlink:href="#g26" y="26979"/><use xlink:href="#g28" y="26996"/><use xlink:href="#g29" y="27013"/><use xlink:href="#g30" y="27030"/><use xlink:href="#g37" y="27047"/><use xlink:href="#g38" y="27064"/><use xlink:href="#g39" y="27081"/><use xlink:href="#g53" y="27098"/><use xlink:href="#g54" y="27115"/><use xlink:href="#g55" y="27132"/><rect x="304" y="27149" width="8" height="17" class="foreground"/><use xlink:href="#g33" y="27149"/></g><g><use xlink:href="#g14" y="27404"/><use xlink:href="#g26" y="27421"/><use xlink:href="#g28" y="27438"/><use xlink:href="#g29" y="27455"/><use xlink:href="#g30" y="27472"/><use xlink:href="#g37" y="27489"/><use xlink:href="#g38" y="27506"/><use xlink:href="#g39" y="27523"/><use xlink:href="#g53" y="27540"/><use xlink:href="#g54" y="27557"/><use xlink:href="#g55" y="27574"/><rect x="312" y="27591" width="8" height="17" class="foreground"/><use xlink:href="#g34" y="27591"/></g><g><use xlink:href="#g14" y="27846"/><use xlink:href="#g26" y="27863"/><use xlink:href="#g28" y="27880"/><use xlink:href="#g29" y="27897"/><use xlink:href="#g30" y="27914"/><use xlink:href="#g37" y="27931"/><use xlink:href="#g38" y="27948"/><use xlink:href="#g39" y="27965"/><use xlink:href="#g53" y="27982"/><use xlink:href="#g54" y="27999"/><use xlink:href="#g55" y="28016"/><rect x="320" y="28033" width="8" height="17" class="foreground"/><use xlink:href="#g35" y="28033"/></g><g><use xlink:href="#g14" y="28288"/><use xlink:href="#g26" y="28305"/><use xlink:href="#g28" y="28322"/><use xlink:href="#g29" y="28339"/><use xlink:href="#g30" y="28356"/><use xlink:href="#g37" y="28373"/><use xlink:href="#g38" y="28390"/><use xlink:href="#g39" y="28407"/><use xlink:href="#g53" y="28424"/><use xlink:href="#g54" y="28441"/><use xlink:href="#g55" y="28458"/><rect x="328" y="28475" width="8" height="17" class="foreground"/><use xlink:href="#g36" y="28475"/></g><g><use xlink:href="#g14" y="28730"/><use xlink:href="#g26" y="28747"/><use xlink:href="#g28" y="28764"/><use xlink:href="#g29" y="28781"/><use xlink:href="#g30" y="28798"/><use xlink:href="#g37" y="28815"/><use xlink:href="#g38" y="28832"/><use xlink:href="#g39" y="28849"/><use xlink:href="#g53" y="28866"/><use xlink:href="#g54" y="28883"/><use xlink:href="#g55" y="28900"/><rect x="336" y="28917" width="8" height="17" class="foreground"/><use xlink:href="#g56" y="28917"/></g><g><use xlink:href="#g14" y="29172"/><use xlink:href="#g26" y="29189"/><use xlink:href="#g28" y="29206"/><use xlink:href="#g29" y="29223"/><use xlink:href="#g30" y="29240"/><use xlink:href="#g37" y="29257"/><use xlink:href="#g38" y="29274"/><use xlink:href="#g39" y="29291"/><use xlink:href="#g53" y="29308"/><use xlink:href="#g54" y="29325"/><use xlink:href="#g55" y="29342"/><rect x="344" y="29359" width="8" height="17" class="foreground"/><use xlink:href="#g57" y="29359"/></g><g><use xlink:href="#g14" y="29614"/><use xlink:href="#g26" y="29631"/><use xlink:href="#g28" y="29648"/><use xlink:href="#g29" y="29665"/><use xlink:href="#g30" y="29682"/><use xlink:href="#g37" y="29699"/><use xlink:href="#g38" y="29716"/><use xlink:href="#g39" y="29733"/><use xlink:href="#g53" y="29750"/><use xlink:href="#g54" y="29767"/><use xlink:href="#g55" y="29784"/><use xlink:href="#g58" y="29801"/><rect x="0" y="29818" width="8" height="17" class="foreground"/><use xlink:href="#g27" y="29818"/></g><g><use xlink:href="#g14" y="30056"/><use xlink:href="#g26" y="30073"/><use xlink:href="#g28" y="30090"/><use xlink:href="#g29" y="30107"/><use xlink:href="#g30" y="30124"/><use xlink:href="#g37" y="30141"/><use xlink:href="#g38" y="30158"/><use xlink:href="#g39" y="30175"/><use xlink:href="#g53" y="30192"/><use xlink:href="#g54" y="30209"/><use xlink:href="#g55" y="30226"/><use xlink:href="#g58" y="30243"/><use xlink:href="#g59" y="30260"/><use xlink:href="#g60" y="30277"/><rect x="0" y="30294" width="8" height="17" class="foreground"/><use xlink:href="#g27" y="30294"/></g><g><use xlink:href="#g14" y="30498"/><use xlink:href="#g26" y="30515"/><use xlink:href="#g28" y="30532"/><use xlink:href="#g29" y="30549"/><use xlink:href="#g30" y="30566"/><use xlink:href="#g37" y="30583"/><use xlink:href="#g38" y="30600"/><use xlink:href="#g39" y="30617"/><use xlink:href="#g53" y="30634"/><use xlink:href="#g54" y="30651"/><use xlink:href="#g55" y="30668"/><use xlink:href="#g58" y="30685"/><use xlink:href="#g59" y="30702"/><use xlink:href="#g60" y="30719"/><rect x="240" y="30736" width="8" height="17" class="foreground"/><use xlink:href="#g61" y="30736"/></g><g><use xlink:href="#g14" y="30940"/><use xlink:href="#g26" y="30957"/><use xlink:href="#g28" y="30974"/><use xlink:href="#g29" y="30991"/><use xlink:href="#g30" y="31008"/><use xlink:href="#g37" y="31025"/><use xlink:href="#g38" y="31042"/><use xlink:href="#g39" y="31059"/><use xlink:href="#g53" y="31076"/><use xlink:href="#g54" y="31093"/><use xlink:href="#g55" y="31110"/><use xlink:href="#g58" y="31127"/><use xlink:href="#g59" y="31144"/><use xlink:href="#g60" y="31161"/><rect x="248" y="31178" width="8" height="17" class="foreground"/><use xlink:href="#g62" y="31178"/></g><g><use xlink:href="#g14" y="31382"/><use xlink:href="#g26" y="31399"/><use xlink:href="#g28" y="31416"/><use xlink:href="#g29" y="31433"/><use xlink:href="#g30" y="31450"/><use xlink:href="#g37" y="31467"/><use xlink:href="#g38" y="31484"/><use xlink:href="#g39" y="31501"/><use xlink:href="#g53" y="31518"/><use xlink:href="#g54" y="31535"/><use xlink:href="#g55" y="31552"/><use xlink:href="#g58" y="31569"/><use xlink:href="#g59" y="31586"/><use xlink:href="#g60" y="31603"/><rect x="256" y="31620" width="8" height="17" class="foreground"/><use xlink:href="#g63" y="31620"/></g><g><use xlink:href="#g14" y="31824"/><use xlink:href="#g26" y="31841"/><use xlink:href="#g28" y="31858"/><use xlink:href="#g29" y="31875"/><use xlink:href="#g30" y="31892"/><use xlink:href="#g37" y="31909"/><use xlink:href="#g38" y="31926"/><use xlink:href="#g39" y="31943"/><use xlink:href="#g53" y="31960"/><use xlink:href="#g54" y="31977"/><use xlink:href="#g55" y="31994"/><use xlink:href="#g58" y="32011"/><use xlink:href="#g59" y="32028"/><use xlink:href="#g60" y="32045"/><rect x="264" y="32062" width="8" height="17" class="foreground"/><use xlink:href="#g64" y="32062"/></g><g><use xlink:href="#g14" y="32266"/><use xlink:href="#g26" y="32283"/><use xlink:href="#g28" y="32300"/><use xlink:href="#g29" y="32317"/><use xlink:href="#g30" y="32334"/><use xlink:href="#g37" y="32351"/><use xlink:href="#g38" y="32368"/><use xlink:href="#g39" y="32385"/><use xlink:href="#g53" y="32402"/><use xlink:href="#g54" y="32419"/><use xlink:href="#g55" y="32436"/><use xlink:href="#g58" y="32453"/><use xlink:href="#g59" y="32470"/><use xlink:href="#g60" y="32487"/><rect x="272" y="32504" width="8" height="17" class="foreground"/><use xlink:href="#g65" y="32504"/></g><g><use xlink:href="#g14" y="32708"/><use xlink:href="#g26" y="32725"/><use xlink:href="#g28" y="32742"/><use xlink:href="#g29" y="32759"/><use xlink:href="#g30" y="32776"/><use xlink:href="#g37" y="32793"/><use xlink:href="#g38" y="32810"/><use xlink:href="#g39" y="32827"/><use xlink:href="#g53" y="32844"/><use xlink:href="#g54" y="32861"/><use xlink:href="#g55" y="32878"/><use xlink:href="#g58" y="32895"/><use xlink:href="#g59" y="32912"/><use xlink:href="#g60" y="32929"/><rect x="280" y="32946" width="8" height="17" class="foreground"/><use xlink:href="#g66" y="32946"/></g><g><use xlink:href="#g14" y="33150"/><use xlink:href="#g26" y="33167"/><use xlink:href="#g28" y="33184"/><use xlink:href="#g29" y="33201"/><use xlink:href="#g30" y="33218"/><use xlink:href="#g37" y="33235"/><use xlink:href="#g38" y="33252"/><use xlink:href="#g39" y="33269"/><use xlink:href="#g53" y="33286"/><use xlink:href="#g54" y="33303"/><use xlink:href="#g55" y="33320"/><use xlink:href="#g58" y="33337"/><use xlink:href="#g59" y="33354"/><use xlink:href="#g60" y="33371"/><rect x="288" y="33388" width="8" height="17" class="foreground"/><use xlink:href="#g67" y="33388"/></g><g><use xlink:href="#g14" y="33592"/><use xlink:href="#g26" y="33609"/><use xlink:href="#g28" y="33626"/><use xlink:href="#g29" y="33643"/><use xlink:href="#g30" y="33660"/><use xlink:href="#g37" y="33677"/><use xlink:href="#g38" y="33694"/><use xlink:href="#g39" y="33711"/><use xlink:href="#g53" y="33728"/><use xlink:href="#g54" y="33745"/><use xlink:href="#g55" y="33762"/><use xlink:href="#g58" y="33779"/><use xlink:href="#g59" y="33796"/><use xlink:href="#g60" y="33813"/><rect x="296" y="33830" width="8" height="17" class="foreground"/><use xlink:href="#g68" y="33830"/></g><g><use xlink:href="#g14" y="34034"/><use xlink:href="#g26" y="34051"/><use xlink:href="#g28" y="34068"/><use xlink:href="#g29" y="34085"/><use xlink:href="#g30" y="34102"/><use xlink:href="#g37" y="34119"/><use xlink:href="#g38" y="34136"/><use xlink:href="#g39" y="34153"/><use xlink:href="#g53" y="34170"/><use xlink:href="#g54" y="34187"/><use xlink:href="#g55" y="34204"/><use xlink:href="#g58" y="34221"/><use xlink:href="#g59" y="34238"/><use xlink:href="#g60" y="34255"/><rect x="304" y="34272" width="8" height="17" class="foreground"/><use xlink:href="#g69" y="34272"/></g><g><use xlink:href="#g14" y="34476"/><use xlink:href="#g26" y="34493"/><use xlink:href="#g28" y="34510"/><use xlink:href="#g29" y="34527"/><use xlink:href="#g30" y="34544"/><use xlink:href="#g37" y="34561"/><use xlink:href="#g38" y="34578"/><use xlink:href="#g39" y="34595"/><use xlink:href="#g53" y="34612"/><use xlink:href="#g54" y="34629"/><use xlink:href="#g55" y="34646"/><use xlink:href="#g58" y="34663"/><use xlink:href="#g59" y="34680"/><use xlink:href="#g60" y="34697"/><rect x="312" y="34714" width="8" height="17" class="foreground"/><use xlink:href="#g70" y="34714"/></g><g><use xlink:href="#g14" y="34918"/><use xlink:href="#g26" y="34935"/><use xlink:href="#g28" y="34952"/><use xlink:href="#g29" y="34969"/><use xlink:href="#g30" y="34986"/><use xlink:href="#g37" y="35003"/><use xlink:href="#g38" y="35020"/><use xlink:href="#g39" y="35037"/><use xlink:href="#g53" y="35054"/><use xlink:href="#g54" y="35071"/><use xlink:href="#g55" y="35088"/><use xlink:href="#g58" y="35105"/><use xlink:href="#g59" y="35122"/><use xlink:href="#g60" y="35139"/><rect x="320" y="35156" width="8" height="17" class="foreground"/><use xlink:href="#g71" y="35156"/></g><g><use xlink:href="#g14" y="35360"/><use xlink:href="#g26" y="35377"/><use xlink:href="#g28" y="35394"/><use xlink:href="#g29" y="35411"/><use xlink:href="#g30" y="35428"/><use xlink:href="#g37" y="35445"/><use xlink:href="#g38" y="35462"/><use xlink:href="#g39" y="35479"/><use xlink:href="#g53" y="35496"/><use xlink:href="#g54" y="35513"/><use xlink:href="#g55" y="35530"/><use xlink:href="#g58" y="35547"/><use xlink:href="#g59" y="35564"/><use xlink:href="#g60" y="35581"/><use xlink:href="#g72" y="35598"/><rect x="0" y="35615" width="8" height="17" class="foreground"/><use xlink:href="#g27" y="35615"/></g><g><use xlink:href="#g14" y="35802"/><use xlink:href="#g26" y="35819"/><use xlink:href="#g28" y="35836"/><use xlink:href="#g29" y="35853"/><use xlink:href="#g30" y="35870"/><use xlink:href="#g37" y="35887"/><use xlink:href="#g38" y="35904"/><use xlink:href="#g39" y="35921"/><use xlink:href="#g53" y="35938"/><use xlink:href="#g54" y="35955"/><use xlink:href="#g55" y="35972"/><use xlink:href="#g58" y="35989"/><use xlink:href="#g59" y="36006"/><use xlink:href="#g60" y="36023"/><use xlink:href="#g72" y="36040"/><use xlink:href="#g28" y="36057"/><use xlink:href="#g73" y="36074"/><use xlink:href="#g74" y="36091"/><rect x="0" y="36108" width="8" height="17" class="foreground"/><use xlink:href="#g27" y="36108"/></g><g><use xlink:href="#g14" y="36244"/><use xlink:href="#g26" y="36261"/><use xlink:href="#g28" y="36278"/><use xlink:href="#g29" y="36295"/><use xlink:href="#g30" y="36312"/><use xlink:href="#g37" y="36329"/><use xlink:href="#g38" y="36346"/><use xlink:href="#g39" y="36363"/><use xlink:href="#g53" y="36380"/><use xlink:href="#g54" y="36397"/><use xlink:href="#g55" y="36414"/><use xlink:href="#g58" y="36431"/><use xlink:href="#g59" y="36448"/><use xlink:href="#g60" y="36465"/><use xlink:href="#g72" y="36482"/><use xlink:href="#g28" y="36499"/><use xlink:href="#g73" y="36516"/><use xlink:href="#g74" y="36533"/><rect x="240" y="36550" width="8" height="17" class="foreground"/><use xlink:href="#g61" y="36550"/></g><g><use xlink:href="#g14" y="36686"/><use xlink:href="#g26" y="36703"/><use xlink:href="#g28" y="36720"/><use xlink:href="#g29" y="36737"/><use xlink:href="#g30" y="36754"/><use xlink:href="#g37" y="36771"/><use xlink:href="#g38" y="36788"/><use xlink:href="#g39" y="36805"/><use xlink:href="#g53" y="36822"/><use xlink:href="#g54" y="36839"/><use xlink:href="#g55" y="36856"/><use xlink:href="#g58" y="36873"/><use xlink:href="#g59" y="36890"/><use xlink:href="#g60" y="36907"/><use xlink:href="#g72" y="36924"/><use xlink:href="#g28" y="36941"/><use xlink:href="#g73" y="36958"/><use xlink:href="#g74" y="36975"/><use xlink:href="#g75" y="36992"/><rect x="0" y="37009" width="8" height="17" class="foreground"/><use xlink:href="#g27" y="37009"/></g></g></svg>
</svg>