<svg xmlns="http://www.w3.org/2000/svg" xmlns:xlink="http://www.w3.org/1999/xlink" id="terminal" baseProfile="full" viewBox="0 0 640 410" width="640" version="1.1">
    <defs>
        <termtosvg:template_settings xmlns:termtosvg="https://github.com/nbedos/termtosvg">
            <termtosvg:screen_geometry columns="80" rows="24"/>
            <termtosvg:animation type="css"/>
        </termtosvg:template_settings>
        <style type="text/css" id="generated-style"><![CDATA[#screen {
                font-family: 'DejaVu Sans Mono', monospace;
                font-style: normal;
                font-size: 14px;
            }

        text {
            dominant-baseline: text-before-edge;
            white-space: pre;
        }
    
            :root {
                --animation-duration: 24077ms;
            }

            @keyframes roll {
                0.000%{transform:translateY(0px)}
4.178%{transform:translateY(-442px)}
5.071%{transform:translateY(-884px)}
5.474%{transform:translateY(-1326px)}
5.902%{transform:translateY(-1768px)}
6.762%{transform:translateY(-2210px)}
7.165%{transform:translateY(-2652px)}
7.534%{transform:translateY(-3094px)}
8.062%{transform:translateY(-3536px)}
8.764%{transform:translateY(-3978px)}
9.627%{transform:translateY(-4420px)}
16.335%{transform:translateY(-4862px)}
16.372%{transform:translateY(-5304px)}
16.410%{transform:translateY(-5746px)}
18.603%{transform:translateY(-6188px)}
19.595%{transform:translateY(-6630px)}
21.128%{transform:translateY(-7072px)}
21.726%{transform:translateY(-7514px)}
23.317%{transform:translateY(-7956px)}
24.089%{transform:translateY(-8398px)}
26.282%{transform:translateY(-8840px)}
26.947%{transform:translateY(-9282px)}
27.379%{transform:translateY(-9724px)}
27.778%{transform:translateY(-10166px)}
29.763%{transform:translateY(-10608px)}
30.519%{transform:translateY(-11050px)}
30.589%{transform:translateY(-11492px)}
36.587%{transform:translateY(-11934px)}
37.683%{transform:translateY(-12376px)}
38.148%{transform:translateY(-12818px)}
38.842%{transform:translateY(-13260px)}
40.670%{transform:translateY(-13702px)}
41.434%{transform:translateY(-14144px)}
41.899%{transform:translateY(-14586px)}
42.568%{transform:translateY(-15028px)}
42.966%{transform:translateY(-15470px)}
43.564%{transform:translateY(-15912px)}
46.326%{transform:translateY(-16354px)}
47.755%{transform:translateY(-16796px)}
50.039%{transform:translateY(-17238px)}
50.413%{transform:translateY(-17680px)}
50.484%{transform:translateY(-18122px)}
54.928%{transform:translateY(-18564px)}
56.930%{transform:translateY(-19006px)}
57.461%{transform:translateY(-19448px)}
58.192%{transform:translateY(-19890px)}
59.484%{transform:translateY(-20332px)}
60.186%{transform:translateY(-20774px)}
60.851%{transform:translateY(-21216px)}
61.648%{transform:translateY(-21658px)}
62.080%{transform:translateY(-22100px)}
62.445%{transform:translateY(-22542px)}
65.930%{transform:translateY(-22984px)}
71.122%{transform:translateY(-23426px)}
72.447%{transform:translateY(-23868px)}
72.833%{transform:translateY(-24310px)}
72.908%{transform:translateY(-24752px)}
78.266%{transform:translateY(-25194px)}
79.732%{transform:translateY(-25636px)}
80.425%{transform:translateY(-26078px)}
80.961%{transform:translateY(-26520px)}
82.024%{transform:translateY(-26962px)}
82.357%{transform:translateY(-27404px)}
82.818%{transform:translateY(-27846px)}
83.250%{transform:translateY(-28288px)}
83.981%{transform:translateY(-28730px)}
84.645%{transform:translateY(-29172px)}
88.765%{transform:translateY(-29614px)}
88.803%{transform:translateY(-30056px)}
88.840%{transform:translateY(-30498px)}
95.847%{transform:translateY(-30940px)}
100.000%{transform:translateY(-30940px)}
            }

            #screen_view {
                animation-duration: 24077ms;
                animation-iteration-count:infinite;
                animation-name:roll;
                animation-timing-function: steps(1,end);
                animation-fill-mode: forwards;
            }
        ]]></style>
        <style type="text/css" id="user-style">
            /* The colors defined below are the default 16 colors used for rendering text of the terminal. Adjust
               them as needed.
               base16-default-dark color theme (source: http://chriskempson.com/projects/base16/) */
            .foreground {fill: #d8d8d8;}
            .background {fill: #181818;}
            .color0 {fill: #181818;}
            .color1 {fill: #ab4642;}
            .color2 {fill: #a1b56c;}
            .color3 {fill: #f7ca88;}
            .color4 {fill: #7cafc2;}
            .color5 {fill: #ba8baf;}
            .color6 {fill: #86c1b9;}
            .color7 {fill: #d8d8d8;}
            .color8 {fill: #585858;}
            .color9 {fill: #ab4642;}
            .color10 {fill: #a1b56C;}
            .color11 {fill: #f7ca88;}
            .color12 {fill: #7cafc2;}
            .color13 {fill: #ba8baf;}
            .color14 {fill: #86c1b9;}
            .color15 {fill: #f8f8f8;}
        </style>
    </defs>
    <svg id="screen" width="640" height="408" viewBox="0 0 640 408" preserveAspectRatio="xMidYMin slice">
    <rect class="background" height="100%" width="100%" x="0" y="0"/><defs><g id="g1"><text x="0" textLength="248" class="foreground">(working) tom@bantam:/code/nc$ </text><text x="248" textLength="8" class="background"> </text></g><g id="g2"><text x="0" textLength="256" class="foreground">(working) tom@bantam:/code/nc$ g</text><text x="256" textLength="8" class="background"> </text></g><g id="g3"><text x="0" textLength="264" class="foreground">(working) tom@bantam:/code/nc$ gi</text><text x="264" textLength="8" class="background"> </text></g><g id="g4"><text x="0" textLength="272" class="foreground">(working) tom@bantam:/code/nc$ git</text><text x="272" textLength="8" class="background"> </text></g><g id="g5"><text x="0" textLength="280" class="foreground">(working) tom@bantam:/code/nc$ git </text><text x="280" textLength="8" class="background"> </text></g><g id="g6"><text x="0" textLength="288" class="foreground">(working) tom@bantam:/code/nc$ git b</text><text x="288" textLength="8" class="background"> </text></g><g id="g7"><text x="0" textLength="296" class="foreground">(working) tom@bantam:/code/nc$ git br</text><text x="296" textLength="8" class="background"> </text></g><g id="g8"><text x="0" textLength="304" class="foreground">(working) tom@bantam:/code/nc$ git bra</text><text x="304" textLength="8" class="background"> </text></g><g id="g9"><text x="0" textLength="312" class="foreground">(working) tom@bantam:/code/nc$ git bran</text><text x="312" textLength="8" class="background"> </text></g><g id="g10"><text x="0" textLength="320" class="foreground">(working) tom@bantam:/code/nc$ git branc</text><text x="320" textLength="8" class="background"> </text></g><g id="g11"><text x="0" textLength="328" class="foreground">(working) tom@bantam:/code/nc$ git branch</text><text x="328" textLength="8" class="background"> </text></g><g id="g12"><text x="0" textLength="328" class="foreground">(working) tom@bantam:/code/nc$ git branch</text></g><g id="g13"><text x="0" textLength="8" class="background"> </text></g><g id="g14"><text x="0" textLength="72" class="foreground">  develop</text></g><g id="g15"><text x="0" textLength="64" class="foreground">  master</text></g><g id="g16"><text x="0" textLength="16" class="foreground">* </text><text x="16" textLength="56" class="color2">working</text></g><g id="g17"><text x="0" textLength="288" class="foreground">(working) tom@bantam:/code/nc$ git r</text><text x="288" textLength="8" class="background"> </text></g><g id="g18"><text x="0" textLength="296" class="foreground">(working) tom@bantam:/code/nc$ git ro</text><text x="296" textLength="8" class="background"> </text></g><g id="g19"><text x="0" textLength="304" class="foreground">(working) tom@bantam:/code/nc$ git rot</text><text x="304" textLength="8" class="background"> </text></g><g id="g20"><text x="0" textLength="312" class="foreground">(working) tom@bantam:/code/nc$ git rota</text><text x="312" textLength="8" class="background"> </text></g><g id="g21"><text x="0" textLength="320" class="foreground">(working) tom@bantam:/code/nc$ git rotat</text><text x="320" textLength="8" class="background"> </text></g><g id="g22"><text x="0" textLength="328" class="foreground">(working) tom@bantam:/code/nc$ git rotate</text><text x="328" textLength="8" class="background"> </text></g><g id="g23"><text x="0" textLength="328" class="foreground">(working) tom@bantam:/code/nc$ git rotate</text></g><g id="g24"><text x="0" textLength="384" class="foreground">Your branch is up to date with 'origin/develop'.</text></g><g id="g25"><text x="0" textLength="224" class="foreground">Switched to branch 'develop'</text></g><g id="g26"><text x="0" textLength="248" class="foreground">(develop) tom@bantam:/code/nc$ </text><text x="248" textLength="8" class="background"> </text></g><g id="g27"><text x="0" textLength="256" class="foreground">(develop) tom@bantam:/code/nc$ g</text><text x="256" textLength="8" class="background"> </text></g><g id="g28"><text x="0" textLength="264" class="foreground">(develop) tom@bantam:/code/nc$ gi</text><text x="264" textLength="8" class="background"> </text></g><g id="g29"><text x="0" textLength="272" class="foreground">(develop) tom@bantam:/code/nc$ git</text><text x="272" textLength="8" class="background"> </text></g><g id="g30"><text x="0" textLength="280" class="foreground">(develop) tom@bantam:/code/nc$ git </text><text x="280" textLength="8" class="background"> </text></g><g id="g31"><text x="0" textLength="288" class="foreground">(develop) tom@bantam:/code/nc$ git r</text><text x="288" textLength="8" class="background"> </text></g><g id="g32"><text x="0" textLength="296" class="foreground">(develop) tom@bantam:/code/nc$ git ro</text><text x="296" textLength="8" class="background"> </text></g><g id="g33"><text x="0" textLength="304" class="foreground">(develop) tom@bantam:/code/nc$ git rot</text><text x="304" textLength="8" class="background"> </text></g><g id="g34"><text x="0" textLength="312" class="foreground">(develop) tom@bantam:/code/nc$ git rota</text><text x="312" textLength="8" class="background"> </text></g><g id="g35"><text x="0" textLength="320" class="foreground">(develop) tom@bantam:/code/nc$ git rotat</text><text x="320" textLength="8" class="background"> </text></g><g id="g36"><text x="0" textLength="328" class="foreground">(develop) tom@bantam:/code/nc$ git rotate</text><text x="328" textLength="8" class="background"> </text></g><g id="g37"><text x="0" textLength="336" class="foreground">(develop) tom@bantam:/code/nc$ git rotate </text><text x="336" textLength="8" class="background"> </text></g><g id="g38"><text x="0" textLength="344" class="foreground">(develop) tom@bantam:/code/nc$ git rotate -</text><text x="344" textLength="8" class="background"> </text></g><g id="g39"><text x="0" textLength="344" class="foreground">(develop) tom@bantam:/code/nc$ git rotate -</text></g><g id="g40"><text x="0" textLength="384" class="foreground">Your branch is up to date with 'origin/working'.</text></g><g id="g41"><text x="0" textLength="224" class="foreground">Switched to branch 'working'</text></g><g id="g42"><text x="0" textLength="336" class="foreground">(working) tom@bantam:/code/nc$ git rotate </text><text x="336" textLength="8" class="background"> </text></g><g id="g43"><text x="0" textLength="344" class="foreground">(working) tom@bantam:/code/nc$ git rotate 2</text><text x="344" textLength="8" class="background"> </text></g><g id="g44"><text x="0" textLength="344" class="foreground">(working) tom@bantam:/code/nc$ git rotate 2</text></g><g id="g45"><text x="0" textLength="376" class="foreground">Your branch is up to date with 'origin/master'.</text></g><g id="g46"><text x="0" textLength="216" class="foreground">Switched to branch 'master'</text></g><g id="g47"><text x="0" textLength="240" class="foreground">(master) tom@bantam:/code/nc$ </text><text x="240" textLength="8" class="background"> </text></g><g id="g48"><text x="0" textLength="248" class="foreground">(master) tom@bantam:/code/nc$ g</text><text x="248" textLength="8" class="background"> </text></g><g id="g49"><text x="0" textLength="256" class="foreground">(master) tom@bantam:/code/nc$ gi</text><text x="256" textLength="8" class="background"> </text></g><g id="g50"><text x="0" textLength="264" class="foreground">(master) tom@bantam:/code/nc$ git</text><text x="264" textLength="8" class="background"> </text></g><g id="g51"><text x="0" textLength="272" class="foreground">(master) tom@bantam:/code/nc$ git </text><text x="272" textLength="8" class="background"> </text></g><g id="g52"><text x="0" textLength="280" class="foreground">(master) tom@bantam:/code/nc$ git b</text><text x="280" textLength="8" class="background"> </text></g><g id="g53"><text x="0" textLength="288" class="foreground">(master) tom@bantam:/code/nc$ git br</text><text x="288" textLength="8" class="background"> </text></g><g id="g54"><text x="0" textLength="296" class="foreground">(master) tom@bantam:/code/nc$ git bra</text><text x="296" textLength="8" class="background"> </text></g><g id="g55"><text x="0" textLength="304" class="foreground">(master) tom@bantam:/code/nc$ git bran</text><text x="304" textLength="8" class="background"> </text></g><g id="g56"><text x="0" textLength="312" class="foreground">(master) tom@bantam:/code/nc$ git branc</text><text x="312" textLength="8" class="background"> </text></g><g id="g57"><text x="0" textLength="320" class="foreground">(master) tom@bantam:/code/nc$ git branch</text><text x="320" textLength="8" class="background"> </text></g><g id="g58"><text x="0" textLength="320" class="foreground">(master) tom@bantam:/code/nc$ git branch</text></g><g id="g59"><text x="0" textLength="16" class="foreground">* </text><text x="16" textLength="48" class="color2">master</text></g><g id="g60"><text x="0" textLength="72" class="foreground">  working</text></g><g id="g61"><text x="0" textLength="272" class="foreground">(master) tom@bantam:/code/nc$ exit</text></g></defs><g id="screen_view"><g><rect x="248" y="0" width="8" height="17" class="foreground"/><use xlink:href="#g1" y="0"/></g><g><rect x="256" y="442" width="8" height="17" class="foreground"/><use xlink:href="#g2" y="442"/></g><g><rect x="264" y="884" width="8" height="17" class="foreground"/><use xlink:href="#g3" y="884"/></g><g><rect x="272" y="1326" width="8" height="17" class="foreground"/><use xlink:href="#g4" y="1326"/></g><g><rect x="280" y="1768" width="8" height="17" class="foreground"/><use xlink:href="#g5" y="1768"/></g><g><rect x="288" y="2210" width="8" height="17" class="foreground"/><use xlink:href="#g6" y="2210"/></g><g><rect x="296" y="2652" width="8" height="17" class="foreground"/><use xlink:href="#g7" y="2652"/></g><g><rect x="304" y="3094" width="8" height="17" class="foreground"/><use xlink:href="#g8" y="3094"/></g><g><rect x="312" y="3536" width="8" height="17" class="foreground"/><use xlink:href="#g9" y="3536"/></g><g><rect x="320" y="3978" width="8" height="17" class="foreground"/><use xlink:href="#g10" y="3978"/></g><g><rect x="328" y="4420" width="8" height="17" class="foreground"/><use xlink:href="#g11" y="4420"/></g><g><use xlink:href="#g12" y="4862"/><rect x="0" y="4879" width="8" height="17" class="foreground"/><use xlink:href="#g13" y="4879"/></g><g><use xlink:href="#g12" y="5304"/><use xlink:href="#g14" y="5321"/><use xlink:href="#g15" y="5338"/><use xlink:href="#g16" y="5355"/><rect x="0" y="5372" width="8" height="17" class="foreground"/><use xlink:href="#g13" y="5372"/></g><g><use xlink:href="#g12" y="5746"/><use xlink:href="#g14" y="5763"/><use xlink:href="#g15" y="5780"/><use xlink:href="#g16" y="5797"/><rect x="248" y="5814" width="8" height="17" class="foreground"/><use xlink:href="#g1" y="5814"/></g><g><use xlink:href="#g12" y="6188"/><use xlink:href="#g14" y="6205"/><use xlink:href="#g15" y="6222"/><use xlink:href="#g16" y="6239"/><rect x="256" y="6256" width="8" height="17" class="foreground"/><use xlink:href="#g2" y="6256"/></g><g><use xlink:href="#g12" y="6630"/><use xlink:href="#g14" y="6647"/><use xlink:href="#g15" y="6664"/><use xlink:href="#g16" y="6681"/><rect x="264" y="6698" width="8" height="17" class="foreground"/><use xlink:href="#g3" y="6698"/></g><g><use xlink:href="#g12" y="7072"/><use xlink:href="#g14" y="7089"/><use xlink:href="#g15" y="7106"/><use xlink:href="#g16" y="7123"/><rect x="272" y="7140" width="8" height="17" class="foreground"/><use xlink:href="#g4" y="7140"/></g><g><use xlink:href="#g12" y="7514"/><use xlink:href="#g14" y="7531"/><use xlink:href="#g15" y="7548"/><use xlink:href="#g16" y="7565"/><rect x="280" y="7582" width="8" height="17" class="foreground"/><use xlink:href="#g5" y="7582"/></g><g><use xlink:href="#g12" y="7956"/><use xlink:href="#g14" y="7973"/><use xlink:href="#g15" y="7990"/><use xlink:href="#g16" y="8007"/><rect x="288" y="8024" width="8" height="17" class="foreground"/><use xlink:href="#g17" y="8024"/></g><g><use xlink:href="#g12" y="8398"/><use xlink:href="#g14" y="8415"/><use xlink:href="#g15" y="8432"/><use xlink:href="#g16" y="8449"/><rect x="296" y="8466" width="8" height="17" class="foreground"/><use xlink:href="#g18" y="8466"/></g><g><use xlink:href="#g12" y="8840"/><use xlink:href="#g14" y="8857"/><use xlink:href="#g15" y="8874"/><use xlink:href="#g16" y="8891"/><rect x="304" y="8908" width="8" height="17" class="foreground"/><use xlink:href="#g19" y="8908"/></g><g><use xlink:href="#g12" y="9282"/><use xlink:href="#g14" y="9299"/><use xlink:href="#g15" y="9316"/><use xlink:href="#g16" y="9333"/><rect x="312" y="9350" width="8" height="17" class="foreground"/><use xlink:href="#g20" y="9350"/></g><g><use xlink:href="#g12" y="9724"/><use xlink:href="#g14" y="9741"/><use xlink:href="#g15" y="9758"/><use xlink:href="#g16" y="9775"/><rect x="320" y="9792" width="8" height="17" class="foreground"/><use xlink:href="#g21" y="9792"/></g><g><use xlink:href="#g12" y="10166"/><use xlink:href="#g14" y="10183"/><use xlink:href="#g15" y="10200"/><use xlink:href="#g16" y="10217"/><rect x="328" y="10234" width="8" height="17" class="foreground"/><use xlink:href="#g22" y="10234"/></g><g><use xlink:href="#g12" y="10608"/><use xlink:href="#g14" y="10625"/><use xlink:href="#g15" y="10642"/><use xlink:href="#g16" y="10659"/><use xlink:href="#g23" y="10676"/><rect x="0" y="10693" width="8" height="17" class="foreground"/><use xlink:href="#g13" y="10693"/></g><g><use xlink:href="#g12" y="11050"/><use xlink:href="#g14" y="11067"/><use xlink:href="#g15" y="11084"/><use xlink:href="#g16" y="11101"/><use xlink:href="#g23" y="11118"/><use xlink:href="#g24" y="11135"/><use xlink:href="#g25" y="11152"/><rect x="0" y="11169" width="8" height="17" class="foreground"/><use xlink:href="#g13" y="11169"/></g><g><use xlink:href="#g12" y="11492"/><use xlink:href="#g14" y="11509"/><use xlink:href="#g15" y="11526"/><use xlink:href="#g16" y="11543"/><use xlink:href="#g23" y="11560"/><use xlink:href="#g24" y="11577"/><use xlink:href="#g25" y="11594"/><rect x="248" y="11611" width="8" height="17" class="foreground"/><use xlink:href="#g26" y="11611"/></g><g><use xlink:href="#g12" y="11934"/><use xlink:href="#g14" y="11951"/><use xlink:href="#g15" y="11968"/><use xlink:href="#g16" y="11985"/><use xlink:href="#g23" y="12002"/><use xlink:href="#g24" y="12019"/><use xlink:href="#g25" y="12036"/><rect x="256" y="12053" width="8" height="17" class="foreground"/><use xlink:href="#g27" y="12053"/></g><g><use xlink:href="#g12" y="12376"/><use xlink:href="#g14" y="12393"/><use xlink:href="#g15" y="12410"/><use xlink:href="#g16" y="12427"/><use xlink:href="#g23" y="12444"/><use xlink:href="#g24" y="12461"/><use xlink:href="#g25" y="12478"/><rect x="264" y="12495" width="8" height="17" class="foreground"/><use xlink:href="#g28" y="12495"/></g><g><use xlink:href="#g12" y="12818"/><use xlink:href="#g14" y="12835"/><use xlink:href="#g15" y="12852"/><use xlink:href="#g16" y="12869"/><use xlink:href="#g23" y="12886"/><use xlink:href="#g24" y="12903"/><use xlink:href="#g25" y="12920"/><rect x="272" y="12937" width="8" height="17" class="foreground"/><use xlink:href="#g29" y="12937"/></g><g><use xlink:href="#g12" y="13260"/><use xlink:href="#g14" y="13277"/><use xlink:href="#g15" y="13294"/><use xlink:href="#g16" y="13311"/><use xlink:href="#g23" y="13328"/><use xlink:href="#g24" y="13345"/><use xlink:href="#g25" y="13362"/><rect x="280" y="13379" width="8" height="17" class="foreground"/><use xlink:href="#g30" y="13379"/></g><g><use xlink:href="#g12" y="13702"/><use xlink:href="#g14" y="13719"/><use xlink:href="#g15" y="13736"/><use xlink:href="#g16" y="13753"/><use xlink:href="#g23" y="13770"/><use xlink:href="#g24" y="13787"/><use xlink:href="#g25" y="13804"/><rect x="288" y="13821" width="8" height="17" class="foreground"/><use xlink:href="#g31" y="13821"/></g><g><use xlink:href="#g12" y="14144"/><use xlink:href="#g14" y="14161"/><use xlink:href="#g15" y="14178"/><use xlink:href="#g16" y="14195"/><use xlink:href="#g23" y="14212"/><use xlink:href="#g24" y="14229"/><use xlink:href="#g25" y="14246"/><rect x="296" y="14263" width="8" height="17" class="foreground"/><use xlink:href="#g32" y="14263"/></g><g><use xlink:href="#g12" y="14586"/><use xlink:href="#g14" y="14603"/><use xlink:href="#g15" y="14620"/><use xlink:href="#g16" y="14637"/><use xlink:href="#g23" y="14654"/><use xlink:href="#g24" y="14671"/><use xlink:href="#g25" y="14688"/><rect x="304" y="14705" width="8" height="17" class="foreground"/><use xlink:href="#g33" y="14705"/></g><g><use xlink:href="#g12" y="15028"/><use xlink:href="#g14" y="15045"/><use xlink:href="#g15" y="15062"/><use xlink:href="#g16" y="15079"/><use xlink:href="#g23" y="15096"/><use xlink:href="#g24" y="15113"/><use xlink:href="#g25" y="15130"/><rect x="312" y="15147" width="8" height="17" class="foreground"/><use xlink:href="#g34" y="15147"/></g><g><use xlink:href="#g12" y="15470"/><use xlink:href="#g14" y="15487"/><use xlink:href="#g15" y="15504"/><use xlink:href="#g16" y="15521"/><use xlink:href="#g23" y="15538"/><use xlink:href="#g24" y="15555"/><use xlink:href="#g25" y="15572"/><rect x="320" y="15589" width="8" height="17" class="foreground"/><use xlink:href="#g35" y="15589"/></g><g><use xlink:href="#g12" y="15912"/><use xlink:href="#g14" y="15929"/><use xlink:href="#g15" y="15946"/><use xlink:href="#g16" y="15963"/><use xlink:href="#g23" y="15980"/><use xlink:href="#g24" y="15997"/><use xlink:href="#g25" y="16014"/><rect x="328" y="16031" width="8" height="17" class="foreground"/><use xlink:href="#g36" y="16031"/></g><g><use xlink:href="#g12" y="16354"/><use xlink:href="#g14" y="16371"/><use xlink:href="#g15" y="16388"/><use xlink:href="#g16" y="16405"/><use xlink:href="#g23" y="16422"/><use xlink:href="#g24" y="16439"/><use xlink:href="#g25" y="16456"/><rect x="336" y="16473" width="8" height="17" class="foreground"/><use xlink:href="#g37" y="16473"/></g><g><use xlink:href="#g12" y="16796"/><use xlink:href="#g14" y="16813"/><use xlink:href="#g15" y="16830"/><use xlink:href="#g16" y="16847"/><use xlink:href="#g23" y="16864"/><use xlink:href="#g24" y="16881"/><use xlink:href="#g25" y="16898"/><rect x="344" y="16915" width="8" height="17" class="foreground"/><use xlink:href="#g38" y="16915"/></g><g><use xlink:href="#g12" y="17238"/><use xlink:href="#g14" y="17255"/><use xlink:href="#g15" y="17272"/><use xlink:href="#g16" y="17289"/><use xlink:href="#g23" y="17306"/><use xlink:href="#g24" y="17323"/><use xlink:href="#g25" y="17340"/><use xlink:href="#g39" y="17357"/><rect x="0" y="17374" width="8" height="17" class="foreground"/><use xlink:href="#g13" y="17374"/></g><g><use xlink:href="#g12" y="17680"/><use xlink:href="#g14" y="17697"/><use xlink:href="#g15" y="17714"/><use xlink:href="#g16" y="17731"/><use xlink:href="#g23" y="17748"/><use xlink:href="#g24" y="17765"/><use xlink:href="#g25" y="17782"/><use xlink:href="#g39" y="17799"/><use xlink:href="#g40" y="17816"/><use xlink:href="#g41" y="17833"/><rect x="0" y="17850" width="8" height="17" class="foreground"/><use xlink:href="#g13" y="17850"/></g><g><use xlink:href="#g12" y="18122"/><use xlink:href="#g14" y="18139"/><use xlink:href="#g15" y="18156"/><use xlink:href="#g16" y="18173"/><use xlink:href="#g23" y="18190"/><use xlink:href="#g24" y="18207"/><use xlink:href="#g25" y="18224"/><use xlink:href="#g39" y="18241"/><use xlink:href="#g40" y="18258"/><use xlink:href="#g41" y="18275"/><rect x="248" y="18292" width="8" height="17" class="foreground"/><use xlink:href="#g1" y="18292"/></g><g><use xlink:href="#g12" y="18564"/><use xlink:href="#g14" y="18581"/><use xlink:href="#g15" y="18598"/><use xlink:href="#g16" y="18615"/><use xlink:href="#g23" y="18632"/><use xlink:href="#g24" y="18649"/><use xlink:href="#g25" y="18666"/><use xlink:href="#g39" y="18683"/><use xlink:href="#g40" y="18700"/><use xlink:href="#g41" y="18717"/><rect x="256" y="18734" width="8" height="17" class="foreground"/><use xlink:href="#g2" y="18734"/></g><g><use xlink:href="#g12" y="19006"/><use xlink:href="#g14" y="19023"/><use xlink:href="#g15" y="19040"/><use xlink:href="#g16" y="19057"/><use xlink:href="#g23" y="19074"/><use xlink:href="#g24" y="19091"/><use xlink:href="#g25" y="19108"/><use xlink:href="#g39" y="19125"/><use xlink:href="#g40" y="19142"/><use xlink:href="#g41" y="19159"/><rect x="264" y="19176" width="8" height="17" class="foreground"/><use xlink:href="#g3" y="19176"/></g><g><use xlink:href="#g12" y="19448"/><use xlink:href="#g14" y="19465"/><use xlink:href="#g15" y="19482"/><use xlink:href="#g16" y="19499"/><use xlink:href="#g23" y="19516"/><use xlink:href="#g24" y="19533"/><use xlink:href="#g25" y="19550"/><use xlink:href="#g39" y="19567"/><use xlink:href="#g40" y="19584"/><use xlink:href="#g41" y="19601"/><rect x="272" y="19618" width="8" height="17" class="foreground"/><use xlink:href="#g4" y="19618"/></g><g><use xlink:href="#g12" y="19890"/><use xlink:href="#g14" y="19907"/><use xlink:href="#g15" y="19924"/><use xlink:href="#g16" y="19941"/><use xlink:href="#g23" y="19958"/><use xlink:href="#g24" y="19975"/><use xlink:href="#g25" y="19992"/><use xlink:href="#g39" y="20009"/><use xlink:href="#g40" y="20026"/><use xlink:href="#g41" y="20043"/><rect x="280" y="20060" width="8" height="17" class="foreground"/><use xlink:href="#g5" y="20060"/></g><g><use xlink:href="#g12" y="20332"/><use xlink:href="#g14" y="20349"/><use xlink:href="#g15" y="20366"/><use xlink:href="#g16" y="20383"/><use xlink:href="#g23" y="20400"/><use xlink:href="#g24" y="20417"/><use xlink:href="#g25" y="20434"/><use xlink:href="#g39" y="20451"/><use xlink:href="#g40" y="20468"/><use xlink:href="#g41" y="20485"/><rect x="288" y="20502" width="8" height="17" class="foreground"/><use xlink:href="#g17" y="20502"/></g><g><use xlink:href="#g12" y="20774"/><use xlink:href="#g14" y="20791"/><use xlink:href="#g15" y="20808"/><use xlink:href="#g16" y="20825"/><use xlink:href="#g23" y="20842"/><use xlink:href="#g24" y="20859"/><use xlink:href="#g25" y="20876"/><use xlink:href="#g39" y="20893"/><use xlink:href="#g40" y="20910"/><use xlink:href="#g41" y="20927"/><rect x="296" y="20944" width="8" height="17" class="foreground"/><use xlink:href="#g18" y="20944"/></g><g><use xlink:href="#g12" y="21216"/><use xlink:href="#g14" y="21233"/><use xlink:href="#g15" y="21250"/><use xlink:href="#g16" y="21267"/><use xlink:href="#g23" y="21284"/><use xlink:href="#g24" y="21301"/><use xlink:href="#g25" y="21318"/><use xlink:href="#g39" y="21335"/><use xlink:href="#g40" y="21352"/><use xlink:href="#g41" y="21369"/><rect x="304" y="21386" width="8" height="17" class="foreground"/><use xlink:href="#g19" y="21386"/></g><g><use xlink:href="#g12" y="21658"/><use xlink:href="#g14" y="21675"/><use xlink:href="#g15" y="21692"/><use xlink:href="#g16" y="21709"/><use xlink:href="#g23" y="21726"/><use xlink:href="#g24" y="21743"/><use xlink:href="#g25" y="21760"/><use xlink:href="#g39" y="21777"/><use xlink:href="#g40" y="21794"/><use xlink:href="#g41" y="21811"/><rect x="312" y="21828" width="8" height="17" class="foreground"/><use xlink:href="#g20" y="21828"/></g><g><use xlink:href="#g12" y="22100"/><use xlink:href="#g14" y="22117"/><use xlink:href="#g15" y="22134"/><use xlink:href="#g16" y="22151"/><use xlink:href="#g23" y="22168"/><use xlink:href="#g24" y="22185"/><use xlink:href="#g25" y="22202"/><use xlink:href="#g39" y="22219"/><use xlink:href="#g40" y="22236"/><use xlink:href="#g41" y="22253"/><rect x="320" y="22270" width="8" height="17" class="foreground"/><use xlink:href="#g21" y="22270"/></g><g><use xlink:href="#g12" y="22542"/><use xlink:href="#g14" y="22559"/><use xlink:href="#g15" y="22576"/><use xlink:href="#g16" y="22593"/><use xlink:href="#g23" y="22610"/><use xlink:href="#g24" y="22627"/><use xlink:href="#g25" y="22644"/><use xlink:href="#g39" y="22661"/><use xlink:href="#g40" y="22678"/><use xlink:href="#g41" y="22695"/><rect x="328" y="22712" width="8" height="17" class="foreground"/><use xlink:href="#g22" y="22712"/></g><g><use xlink:href="#g12" y="22984"/><use xlink:href="#g14" y="23001"/><use xlink:href="#g15" y="23018"/><use xlink:href="#g16" y="23035"/><use xlink:href="#g23" y="23052"/><use xlink:href="#g24" y="23069"/><use xlink:href="#g25" y="23086"/><use xlink:href="#g39" y="23103"/><use xlink:href="#g40" y="23120"/><use xlink:href="#g41" y="23137"/><rect x="336" y="23154" width="8" height="17" class="foreground"/><use xlink:href="#g42" y="23154"/></g><g><use xlink:href="#g12" y="23426"/><use xlink:href="#g14" y="23443"/><use xlink:href="#g15" y="23460"/><use xlink:href="#g16" y="23477"/><use xlink:href="#g23" y="23494"/><use xlink:href="#g24" y="23511"/><use xlink:href="#g25" y="23528"/><use xlink:href="#g39" y="23545"/><use xlink:href="#g40" y="23562"/><use xlink:href="#g41" y="23579"/><rect x="344" y="23596" width="8" height="17" class="foreground"/><use xlink:href="#g43" y="23596"/></g><g><use xlink:href="#g12" y="23868"/><use xlink:href="#g14" y="23885"/><use xlink:href="#g15" y="23902"/><use xlink:href="#g16" y="23919"/><use xlink:href="#g23" y="23936"/><use xlink:href="#g24" y="23953"/><use xlink:href="#g25" y="23970"/><use xlink:href="#g39" y="23987"/><use xlink:href="#g40" y="24004"/><use xlink:href="#g41" y="24021"/><use xlink:href="#g44" y="24038"/><rect x="0" y="24055" width="8" height="17" class="foreground"/><use xlink:href="#g13" y="24055"/></g><g><use xlink:href="#g12" y="24310"/><use xlink:href="#g14" y="24327"/><use xlink:href="#g15" y="24344"/><use xlink:href="#g16" y="24361"/><use xlink:href="#g23" y="24378"/><use xlink:href="#g24" y="24395"/><use xlink:href="#g25" y="24412"/><use xlink:href="#g39" y="24429"/><use xlink:href="#g40" y="24446"/><use xlink:href="#g41" y="24463"/><use xlink:href="#g44" y="24480"/><use xlink:href="#g45" y="24497"/><use xlink:href="#g46" y="24514"/><rect x="0" y="24531" width="8" height="17" class="foreground"/><use xlink:href="#g13" y="24531"/></g><g><use xlink:href="#g12" y="24752"/><use xlink:href="#g14" y="24769"/><use xlink:href="#g15" y="24786"/><use xlink:href="#g16" y="24803"/><use xlink:href="#g23" y="24820"/><use xlink:href="#g24" y="24837"/><use xlink:href="#g25" y="24854"/><use xlink:href="#g39" y="24871"/><use xlink:href="#g40" y="24888"/><use xlink:href="#g41" y="24905"/><use xlink:href="#g44" y="24922"/><use xlink:href="#g45" y="24939"/><use xlink:href="#g46" y="24956"/><rect x="240" y="24973" width="8" height="17" class="foreground"/><use xlink:href="#g47" y="24973"/></g><g><use xlink:href="#g12" y="25194"/><use xlink:href="#g14" y="25211"/><use xlink:href="#g15" y="25228"/><use xlink:href="#g16" y="25245"/><use xlink:href="#g23" y="25262"/><use xlink:href="#g24" y="25279"/><use xlink:href="#g25" y="25296"/><use xlink:href="#g39" y="25313"/><use xlink:href="#g40" y="25330"/><use xlink:href="#g41" y="25347"/><use xlink:href="#g44" y="25364"/><use xlink:href="#g45" y="25381"/><use xlink:href="#g46" y="25398"/><rect x="248" y="25415" width="8" height="17" class="foreground"/><use xlink:href="#g48" y="25415"/></g><g><use xlink:href="#g12" y="25636"/><use xlink:href="#g14" y="25653"/><use xlink:href="#g15" y="25670"/><use xlink:href="#g16" y="25687"/><use xlink:href="#g23" y="25704"/><use xlink:href="#g24" y="25721"/><use xlink:href="#g25" y="25738"/><use xlink:href="#g39" y="25755"/><use xlink:href="#g40" y="25772"/><use xlink:href="#g41" y="25789"/><use xlink:href="#g44" y="25806"/><use xlink:href="#g45" y="25823"/><use xlink:href="#g46" y="25840"/><rect x="256" y="25857" width="8" height="17" class="foreground"/><use xlink:href="#g49" y="25857"/></g><g><use xlink:href="#g12" y="26078"/><use xlink:href="#g14" y="26095"/><use xlink:href="#g15" y="26112"/><use xlink:href="#g16" y="26129"/><use xlink:href="#g23" y="26146"/><use xlink:href="#g24" y="26163"/><use xlink:href="#g25" y="26180"/><use xlink:href="#g39" y="26197"/><use xlink:href="#g40" y="26214"/><use xlink:href="#g41" y="26231"/><use xlink:href="#g44" y="26248"/><use xlink:href="#g45" y="26265"/><use xlink:href="#g46" y="26282"/><rect x="264" y="26299" width="8" height="17" class="foreground"/><use xlink:href="#g50" y="26299"/></g><g><use xlink:href="#g12" y="26520"/><use xlink:href="#g14" y="26537"/><use xlink:href="#g15" y="26554"/><use xlink:href="#g16" y="26571"/><use xlink:href="#g23" y="26588"/><use xlink:href="#g24" y="26605"/><use xlink:href="#g25" y="26622"/><use xlink:href="#g39" y="26639"/><use xlink:href="#g40" y="26656"/><use xlink:href="#g41" y="26673"/><use xlink:href="#g44" y="26690"/><use xlink:href="#g45" y="26707"/><use xlink:href="#g46" y="26724"/><rect x="272" y="26741" width="8" height="17" class="foreground"/><use xlink:href="#g51" y="26741"/></g><g><use xlink:href="#g12" y="26962"/><use xlink:href="#g14" y="26979"/><use xlink:href="#g15" y="26996"/><use xlink:href="#g16" y="27013"/><use xlink:href="#g23" y="27030"/><use xlink:href="#g24" y="27047"/><use xlink:href="#g25" y="27064"/><use xlink:href="#g39" y="27081"/><use xlink:href="#g40" y="27098"/><use xlink:href="#g41" y="27115"/><use xlink:href="#g44" y="27132"/><use xlink:href="#g45" y="27149"/><use xlink:href="#g46" y="27166"/><rect x="280" y="27183" width="8" height="17" class="foreground"/><use xlink:href="#g52" y="27183"/></g><g><use xlink:href="#g12" y="27404"/><use xlink:href="#g14" y="27421"/><use xlink:href="#g15" y="27438"/><use xlink:href="#g16" y="27455"/><use xlink:href="#g23" y="27472"/><use xlink:href="#g24" y="27489"/><use xlink:href="#g25" y="27506"/><use xlink:href="#g39" y="27523"/><use xlink:href="#g40" y="27540"/><use xlink:href="#g41" y="27557"/><use xlink:href="#g44" y="27574"/><use xlink:href="#g45" y="27591"/><use xlink:href="#g46" y="27608"/><rect x="288" y="27625" width="8" height="17" class="foreground"/><use xlink:href="#g53" y="27625"/></g><g><use xlink:href="#g12" y="27846"/><use xlink:href="#g14" y="27863"/><use xlink:href="#g15" y="27880"/><use xlink:href="#g16" y="27897"/><use xlink:href="#g23" y="27914"/><use xlink:href="#g24" y="27931"/><use xlink:href="#g25" y="27948"/><use xlink:href="#g39" y="27965"/><use xlink:href="#g40" y="27982"/><use xlink:href="#g41" y="27999"/><use xlink:href="#g44" y="28016"/><use xlink:href="#g45" y="28033"/><use xlink:href="#g46" y="28050"/><rect x="296" y="28067" width="8" height="17" class="foreground"/><use xlink:href="#g54" y="28067"/></g><g><use xlink:href="#g12" y="28288"/><use xlink:href="#g14" y="28305"/><use xlink:href="#g15" y="28322"/><use xlink:href="#g16" y="28339"/><use xlink:href="#g23" y="28356"/><use xlink:href="#g24" y="28373"/><use xlink:href="#g25" y="28390"/><use xlink:href="#g39" y="28407"/><use xlink:href="#g40" y="28424"/><use xlink:href="#g41" y="28441"/><use xlink:href="#g44" y="28458"/><use xlink:href="#g45" y="28475"/><use xlink:href="#g46" y="28492"/><rect x="304" y="28509" width="8" height="17" class="foreground"/><use xlink:href="#g55" y="28509"/></g><g><use xlink:href="#g12" y="28730"/><use xlink:href="#g14" y="28747"/><use xlink:href="#g15" y="28764"/><use xlink:href="#g16" y="28781"/><use xlink:href="#g23" y="28798"/><use xlink:href="#g24" y="28815"/><use xlink:href="#g25" y="28832"/><use xlink:href="#g39" y="28849"/><use xlink:href="#g40" y="28866"/><use xlink:href="#g41" y="28883"/><use xlink:href="#g44" y="28900"/><use xlink:href="#g45" y="28917"/><use xlink:href="#g46" y="28934"/><rect x="312" y="28951" width="8" height="17" class="foreground"/><use xlink:href="#g56" y="28951"/></g><g><use xlink:href="#g12" y="29172"/><use xlink:href="#g14" y="29189"/><use xlink:href="#g15" y="29206"/><use xlink:href="#g16" y="29223"/><use xlink:href="#g23" y="29240"/><use xlink:href="#g24" y="29257"/><use xlink:href="#g25" y="29274"/><use xlink:href="#g39" y="29291"/><use xlink:href="#g40" y="29308"/><use xlink:href="#g41" y="29325"/><use xlink:href="#g44" y="29342"/><use xlink:href="#g45" y="29359"/><use xlink:href="#g46" y="29376"/><rect x="320" y="29393" width="8" height="17" class="foreground"/><use xlink:href="#g57" y="29393"/></g><g><use xlink:href="#g12" y="29614"/><use xlink:href="#g14" y="29631"/><use xlink:href="#g15" y="29648"/><use xlink:href="#g16" y="29665"/><use xlink:href="#g23" y="29682"/><use xlink:href="#g24" y="29699"/><use xlink:href="#g25" y="29716"/><use xlink:href="#g39" y="29733"/><use xlink:href="#g40" y="29750"/><use xlink:href="#g41" y="29767"/><use xlink:href="#g44" y="29784"/><use xlink:href="#g45" y="29801"/><use xlink:href="#g46" y="29818"/><use xlink:href="#g58" y="29835"/><rect x="0" y="29852" width="8" height="17" class="foreground"/><use xlink:href="#g13" y="29852"/></g><g><use xlink:href="#g12" y="30056"/><use xlink:href="#g14" y="30073"/><use xlink:href="#g15" y="30090"/><use xlink:href="#g16" y="30107"/><use xlink:href="#g23" y="30124"/><use xlink:href="#g24" y="30141"/><use xlink:href="#g25" y="30158"/><use xlink:href="#g39" y="30175"/><use xlink:href="#g40" y="30192"/><use xlink:href="#g41" y="30209"/><use xlink:href="#g44" y="30226"/><use xlink:href="#g45" y="30243"/><use xlink:href="#g46" y="30260"/><use xlink:href="#g58" y="30277"/><use xlink:href="#g14" y="30294"/><use xlink:href="#g59" y="30311"/><use xlink:href="#g60" y="30328"/><rect x="0" y="30345" width="8" height="17" class="foreground"/><use xlink:href="#g13" y="30345"/></g><g><use xlink:href="#g12" y="30498"/><use xlink:href="#g14" y="30515"/><use xlink:href="#g15" y="30532"/><use xlink:href="#g16" y="30549"/><use xlink:href="#g23" y="30566"/><use xlink:href="#g24" y="30583"/><use xlink:href="#g25" y="30600"/><use xlink:href="#g39" y="30617"/><use xlink:href="#g40" y="30634"/><use xlink:href="#g41" y="30651"/><use xlink:href="#g44" y="30668"/><use xlink:href="#g45" y="30685"/><use xlink:href="#g46" y="30702"/><use xlink:href="#g58" y="30719"/><use xlink:href="#g14" y="30736"/><use xlink:href="#g59" y="30753"/><use xlink:href="#g60" y="30770"/><rect x="240" y="30787" width="8" height="17" class="foreground"/><use xlink:href="#g47" y="30787"/></g><g><use xlink:href="#g12" y="30940"/><use xlink:href="#g14" y="30957"/><use xlink:href="#g15" y="30974"/><use xlink:href="#g16" y="30991"/><use xlink:href="#g23" y="31008"/><use xlink:href="#g24" y="31025"/><use xlink:href="#g25" y="31042"/><use xlink:href="#g39" y="31059"/><use xlink:href="#g40" y="31076"/><use xlink:href="#g41" y="31093"/><use xlink:href="#g44" y="31110"/><use xlink:href="#g45" y="31127"/><use xlink:href="#g46" y="31144"/><use xlink:href="#g58" y="31161"/><use xlink:href="#g14" y="31178"/><use xlink:href="#g59" y="31195"/><use xlink:href="#g60" y="31212"/><use xlink:href="#g61" y="31229"/><rect x="0" y="31246" width="8" height="17" class="foreground"/><use xlink:href="#g13" y="31246"/></g></g></svg>
</svg>